<svg width="76" height="76" viewBox="0 0 76 76" fill="none" xmlns="http://www.w3.org/2000/svg">
<path fill-rule="evenodd" clip-rule="evenodd" d="M65.632 29.9161L74.3725 19.665C74.9074 19.0739 75.1283 18.2632 74.9671 17.4826C74.806 16.7019 74.2822 16.0448 73.5571 15.7138L48.3266 3.2417C48.0791 3.11927 47.7791 3.2207 47.6567 3.46826C47.5343 3.71582 47.6357 4.01575 47.8832 4.13818L73.1313 16.6187C73.5723 16.8158 73.8913 17.2133 73.9883 17.6865C74.0853 18.1597 73.9484 18.6506 73.6206 19.0054L64.7611 29.3958L52.8442 22.4498C52.6055 22.3106 52.2993 22.3913 52.1601 22.6299C52.021 22.8686 52.1016 23.1749 52.3403 23.314L63.8146 30.002L37.6635 42.4917L11.535 30.0124L22.5288 23.9058C22.6862 23.8196 22.7854 23.6556 22.7886 23.4761C22.7919 23.2967 22.6987 23.1292 22.5445 23.0374C22.3903 22.9456 22.1987 22.9434 22.0424 23.0318L10.8082 29.2719L2.08638 19.1113C1.75754 18.7561 1.62015 18.2641 1.71738 17.7899C1.8146 17.3156 2.13451 16.9174 2.57661 16.7202L27.1342 4.13477C27.2942 4.05375 27.3986 3.89324 27.4078 3.71411C27.4169 3.53498 27.3294 3.36468 27.1785 3.26778C27.0276 3.17089 26.8363 3.16224 26.6772 3.24512L2.13813 15.8213C1.41475 16.1561 0.894222 16.8155 0.736623 17.5969C0.579024 18.3782 0.803226 19.1879 1.34028 19.7769L9.87898 29.7258L1.28657 37.8218C0.704119 38.3702 0.419372 39.1642 0.520605 39.9577C0.621839 40.7513 1.09682 41.4484 1.79829 41.833L9.94477 46.3582V60.8174C9.9477 61.7796 10.4999 62.6556 11.3666 63.0732L36.5864 75.1182C37.2676 75.445 38.0604 75.445 38.7416 75.1182L63.9614 63.0732C64.8282 62.6556 65.3803 61.7796 65.3832 60.8174V46.1514L73.4232 41.7563C74.126 41.3726 74.6024 40.6754 74.7044 39.8812C74.8065 39.087 74.5218 38.292 73.9389 37.7431L65.632 29.9161ZM1.51313 39.833C1.44905 39.356 1.62013 38.8775 1.97213 38.5493L10.4208 30.5887L36.623 43.1032L26.1157 53.002C25.6449 53.4477 24.9404 53.539 24.3715 53.2281L2.28071 40.957C1.85788 40.7288 1.57181 40.3099 1.51313 39.833ZM10.9448 60.8174C10.9465 61.3948 11.278 61.9205 11.7983 62.1709L37.018 74.2158C37.0656 74.2352 37.1142 74.2521 37.1635 74.2664V43.9673L26.8012 53.7295C26.0147 54.4731 24.8382 54.6244 23.8891 54.104L10.9448 46.9137V60.8174ZM64.3833 60.8174C64.3816 61.3948 64.0501 61.9205 63.5298 62.1709L38.31 74.2158C38.2621 74.2354 38.2132 74.2524 38.1635 74.2668V44.5368L47.9213 53.7295C48.7083 54.4738 49.8858 54.6251 50.8354 54.104L64.3832 46.6981L64.3833 60.8174ZM72.9438 40.8784C73.3673 40.65 73.6541 40.2308 73.7134 39.7534C73.7766 39.2768 73.6052 38.799 73.2534 38.4712L64.8945 30.5947L38.3029 43.2947L48.6069 53.0019C49.0794 53.4484 49.7861 53.5389 50.3559 53.2261L72.9438 40.8784Z" fill="black"/>
<path d="M36.3109 25.7559C36.8961 26.3242 37.8272 26.3242 38.4124 25.7559L46.5745 17.75C46.7703 17.5561 46.7725 17.2405 46.5794 17.0439C46.3864 16.8473 46.0707 16.8439 45.8734 17.0361L37.8617 24.8945V0.5C37.8617 0.223858 37.6378 0 37.3617 0C37.0855 0 36.8617 0.223858 36.8617 0.5V24.8955L28.849 17.0361C28.7214 16.9109 28.5368 16.8632 28.3645 16.911C28.1923 16.9588 28.0587 17.0949 28.014 17.2679C27.9693 17.441 28.0203 17.6247 28.1478 17.75L36.3109 25.7559Z" fill="black"/>
</svg>
