<svg width="76" height="76" viewBox="0 0 76 76" fill="none" xmlns="http://www.w3.org/2000/svg">
<path d="M8.13129 26.5493C8.17403 26.5609 8.21812 26.5667 8.2624 26.5666C8.49168 26.5664 8.6922 26.4121 8.75125 26.1906L14.7684 3.6459C15.2779 1.75643 17.2182 0.633589 19.1102 1.13331L37.7386 6.10547C39.631 6.61078 40.7556 8.5543 40.2507 10.4468L38.9518 15.314C38.9172 15.4438 38.9355 15.5821 39.0028 15.6983C39.07 15.8146 39.1808 15.8994 39.3106 15.934C39.5302 15.9924 39.7614 15.8938 39.8715 15.695C41.8198 14.1936 44.5119 14.1126 46.547 15.4942C48.5821 16.8757 49.5003 19.4076 48.824 21.7725C48.1477 24.1375 46.0296 25.801 43.5717 25.8976C41.1596 25.989 38.9505 24.554 38.0536 22.3129C38.0097 22.1393 37.876 22.0026 37.7035 21.9546C37.4336 21.8849 37.1576 22.0446 37.0835 22.3134L34.2335 32.9914C34.1988 33.1212 34.2172 33.2595 34.2844 33.3758C34.3517 33.492 34.4624 33.5768 34.5922 33.6114C34.635 33.623 34.6791 33.6288 34.7234 33.6287C34.9526 33.6285 35.1532 33.4743 35.2122 33.2527L37.7241 23.8415C38.9569 25.7523 41.0731 26.9092 43.3471 26.9154C43.4351 26.9154 43.5232 26.9134 43.6113 26.91C46.3657 26.8137 48.7813 25.0431 49.7024 22.4455C50.6234 19.8478 49.8627 16.9511 47.7841 15.1411C45.7055 13.3312 42.7317 12.9761 40.2854 14.2456L41.2294 10.708C41.5414 9.53966 41.3764 8.29519 40.7707 7.24847C40.165 6.20175 39.1683 5.43854 37.9999 5.12679L19.3715 0.154611C16.9386 -0.491764 14.4416 0.953181 13.7897 3.38461L7.77255 25.9293C7.73785 26.0591 7.75616 26.1974 7.82345 26.3136C7.89073 26.4299 8.00147 26.5147 8.13129 26.5493Z" fill="black"/>
<path d="M72.2014 13.8658L49.5805 8.14109C49.4048 8.0963 49.2186 8.14877 49.0921 8.27869C48.9657 8.40862 48.9183 8.5962 48.9678 8.7706C49.0173 8.94501 49.1562 9.07967 49.3321 9.12374L71.953 14.8485C72.8648 15.0793 73.6476 15.663 74.1291 16.471C74.6106 17.279 74.7514 18.2452 74.5205 19.157L69.7902 37.8483C69.3092 39.7469 67.3804 40.8965 65.4815 40.4163L60.598 39.1803C60.3267 39.1122 60.0515 39.2764 59.9825 39.5474C59.9289 39.7681 60.0305 39.9972 60.23 40.1055C61.7476 42.0275 61.8661 44.7046 60.5244 46.7532C59.1827 48.8018 56.6813 49.763 54.313 49.1401C51.9447 48.5171 50.24 46.4495 50.0799 44.0059C49.9199 41.5622 51.3403 39.29 53.6071 38.3634C53.6242 38.3535 53.6407 38.3425 53.6564 38.3306C53.7947 38.276 53.9001 38.1607 53.9421 38.018C54.0103 37.7467 53.8461 37.4714 53.575 37.4025L42.8607 34.6911C42.6849 34.6458 42.4982 34.698 42.3715 34.8281C42.2447 34.9581 42.1972 35.146 42.2469 35.3207C42.2967 35.4953 42.4361 35.63 42.6123 35.6737L52.0549 38.0634C49.5932 39.698 48.4923 42.7518 49.3448 45.5811C50.1973 48.4104 52.802 50.3477 55.757 50.3502C55.8767 50.3502 55.997 50.3468 56.1172 50.3408C58.4083 50.2293 60.4824 48.9512 61.612 46.9547C62.7415 44.9582 62.7689 42.5221 61.6844 40.5008L65.2333 41.399C66.4058 41.6959 67.6482 41.5148 68.6872 40.8954C69.7261 40.2761 70.4764 39.2693 70.773 38.0967L75.5031 19.4055C76.118 16.9644 74.641 14.4863 72.2014 13.8658Z" fill="black"/>
<path d="M67.944 48.8535C67.8138 48.8197 67.6755 48.8394 67.5599 48.908C67.4442 48.9767 67.3607 49.0887 67.328 49.2191L61.5696 71.8316C61.3376 72.7432 60.7529 73.5252 59.9442 74.0057C59.1355 74.4862 58.1691 74.6257 57.2575 74.3936L38.5732 69.6357C36.6763 69.1503 35.5303 67.2211 36.0112 65.3231L37.2541 60.4415C37.2874 60.3113 37.2675 60.1732 37.199 60.0577C37.1304 59.9421 37.0187 59.8586 36.8884 59.8255C36.6678 59.7693 36.4373 59.8707 36.3296 60.0713C34.6579 61.3926 32.3884 61.6698 30.4478 60.7899C28.5072 59.9099 27.2204 58.02 27.1128 55.8919C26.972 53.1208 28.8475 50.6512 31.5547 50.043C34.2618 49.4349 37.0135 50.8651 38.0713 53.4301C38.1273 53.6497 38.3253 53.8031 38.5519 53.8024C38.7833 53.8022 38.9851 53.6451 39.0423 53.4209L41.7695 42.7111C41.8387 42.4401 41.675 42.1643 41.4039 42.0951C41.1328 42.026 40.857 42.1897 40.7879 42.4608L38.3839 51.901C36.9488 49.7366 34.3929 48.5956 31.8235 48.9724C29.2541 49.3492 27.1334 51.176 26.3802 53.6612C25.627 56.1465 26.3768 58.8432 28.3048 60.583C29.5336 61.6996 31.1352 62.317 32.7955 62.3143C32.9113 62.3143 33.0276 62.3113 33.1444 62.3054C34.1198 62.2529 35.0718 61.9865 35.9328 61.5251L35.0295 65.0728C34.7308 66.2448 34.91 67.4874 35.5277 68.5273C36.1453 69.5671 37.1508 70.319 38.3228 70.6174L57.0072 75.3754C57.3774 75.47 57.7581 75.518 58.1402 75.5183C60.222 75.5123 62.0361 74.099 62.5513 72.082L68.3097 49.4695C68.343 49.3393 68.3231 49.2012 68.2545 49.0857C68.186 48.9701 68.0742 48.8866 67.944 48.8535Z" fill="black"/>
<path d="M26.2235 66.8352L3.65853 60.8927C2.74887 60.6533 1.97162 60.0622 1.49782 59.2496C1.02401 58.437 0.892462 57.4695 1.13212 56.5599L6.04194 37.9151C6.54275 36.0224 8.48091 34.8921 10.3748 35.3882L15.2461 36.6712C15.4904 36.7384 15.7464 36.6126 15.8427 36.3783C15.939 36.1439 15.8453 35.8745 15.6243 35.7505C14.3161 34.0681 14.057 31.796 14.9527 29.8622C15.8484 27.9285 17.7491 26.6568 19.8783 26.5666C22.6521 26.4484 25.1075 28.3463 25.6919 31.0605C26.2763 33.7746 24.8196 36.5149 22.2429 37.5487C22.0721 37.5939 21.9381 37.7265 21.8911 37.8969C21.8568 38.0268 21.8756 38.165 21.9432 38.2811C22.0109 38.3972 22.1219 38.4816 22.2519 38.5158L32.9394 41.3302C33.2094 41.4004 33.4854 41.2389 33.5565 40.969C33.6276 40.6992 33.4672 40.4227 33.1976 40.3505L23.7782 37.8701C26.8276 35.8983 27.7592 31.8607 25.882 28.7522C24.0047 25.6437 19.9977 24.5886 16.833 26.3694C13.6683 28.1503 12.4906 32.1231 14.1735 35.341L10.6331 34.4085C8.19785 33.7677 5.70406 35.2218 5.06226 37.6569L0.152433 56.3016C-0.155681 57.471 0.0134087 58.7149 0.622501 59.7597C1.23159 60.8045 2.23079 61.5644 3.40025 61.8724L25.9652 67.8149C26.1405 67.8618 26.3275 67.8114 26.4554 67.6827C26.5833 67.5541 26.6327 67.3668 26.5848 67.1918C26.5369 67.0168 26.3991 66.8808 26.2235 66.8352Z" fill="black"/>
</svg>
